<svg fill="none" height="30" viewBox="0 0 30 30" width="30" xmlns="http://www.w3.org/2000/svg"><path d="m6.25 22.3125c1.125-1.1042 2.4325-1.9738 3.9225-2.6088s3.0992-.9529 4.8275-.9537c1.7292 0 3.3387.3179 4.8287.9537 1.49.6359 2.7971 1.5055 3.9213 2.6088v-16.0625h-17.5zm8.75-6.0625c1.2083 0 2.2396-.4271 3.0938-1.2812.8541-.8542 1.2812-1.8855 1.2812-3.0938s-.4271-2.23958-1.2812-3.09375c-.8542-.85417-1.8855-1.28125-3.0938-1.28125s-2.2396.42708-3.0938 1.28125c-.8541.85417-1.2812 1.88545-1.2812 3.09375s.4271 2.2396 1.2812 3.0938c.8542.8541 1.8855 1.2812 3.0938 1.2812zm-8.75 10c-.6875 0-1.27583-.2446-1.765-.7337-.48917-.4892-.73417-1.078-.735-1.7663v-17.5c0-.6875.245-1.27583.735-1.765s1.07833-.73417 1.765-.735h17.5c.6875 0 1.2763.245 1.7663.735s.7345 1.07833.7337 1.765v17.5c0 .6875-.2446 1.2763-.7337 1.7663-.4892.49-1.078.7345-1.7663.7337zm2.5-2.5h12.5v-.3125c-.875-.7292-1.8437-1.2758-2.9062-1.64s-2.1771-.5467-3.3438-.5475c-1.1667 0-2.2813.1825-3.3438.5475s-2.0312.9117-2.9062 1.64zm6.25-10c-.5208 0-.9633-.1821-1.3275-.5463-.3642-.3641-.5467-.807-.5475-1.3287 0-.5208.1825-.9633.5475-1.3275s.8075-.5467 1.3275-.5475c.5208 0 .9637.1825 1.3287.5475s.5471.8075.5463 1.3275c0 .5208-.1821.9637-.5463 1.3287-.3641.365-.807.5471-1.3287.5463z" fill="#000"/></svg>