<svg width="40" height="40" viewBox="0 0 40 40" fill="none" xmlns="http://www.w3.org/2000/svg">
<path d="M9.71337 11.6667L13.94 15.8917L11.5834 18.25L3.33337 10L11.5834 1.75L13.94 4.10833L9.71337 8.33333H21.6667C25.2029 8.33333 28.5943 9.73809 31.0948 12.2386C33.5953 14.7391 35 18.1304 35 21.6667C35 25.2029 33.5953 28.5943 31.0948 31.0948C28.5943 33.5952 25.2029 35 21.6667 35H6.66671V31.6667H21.6667C24.3189 31.6667 26.8624 30.6131 28.7378 28.7377C30.6131 26.8624 31.6667 24.3188 31.6667 21.6667C31.6667 19.0145 30.6131 16.471 28.7378 14.5956C26.8624 12.7202 24.3189 11.6667 21.6667 11.6667H9.71337Z" fill="black"/>
</svg>
