<?xml version="1.0" standalone="no"?>
<!DOCTYPE svg PUBLIC "-//W3C//DTD SVG 20010904//EN"
 "http://www.w3.org/TR/2001/REC-SVG-20010904/DTD/svg10.dtd">
<svg version="1.0" xmlns="http://www.w3.org/2000/svg"
 width="128.000000pt" height="128.000000pt" viewBox="0 0 128.000000 128.000000"
 preserveAspectRatio="xMidYMid meet">

<g transform="translate(0.000000,128.000000) scale(0.100000,-0.100000)"
fill="#000000" stroke="none">
<path d="M415 1176 c-72 -32 -118 -105 -118 -186 0 -82 47 -156 120 -186 49
-21 390 -19 441 1 127 54 163 221 69 324 -49 53 -86 61 -292 60 -135 0 -199
-4 -220 -13z m129 -127 c33 -26 35 -73 4 -106 -43 -46 -118 -13 -118 53 0 35
37 74 70 74 10 0 29 -9 44 -21z m280 0 c50 -39 20 -129 -44 -129 -68 0 -96 81
-44 128 31 27 54 28 88 1z"/>
</g>
</svg>
