<svg width="30" height="30" viewBox="0 0 30 30" fill="none" xmlns="http://www.w3.org/2000/svg">
<path d="M11.475 1.25H18.525L19.3337 5.29625C20.0034 5.59627 20.6401 5.96491 21.2337 6.39625L25.145 5.0725L28.67 11.1775L25.5687 13.9025C25.6438 14.6322 25.6438 15.3678 25.5687 16.0975L28.6687 18.8225L25.145 24.9275L21.2337 23.605C20.64 24.0359 20.0033 24.4041 19.3337 24.7038L18.5237 28.75H11.475L10.6662 24.7038C9.99657 24.4037 9.35984 24.0351 8.76621 23.6037L4.85496 24.9275L1.32996 18.8225L4.43121 16.0975C4.3562 15.3678 4.3562 14.6322 4.43121 13.9025L1.33121 11.1775L4.85621 5.0725L8.76621 6.395C9.35987 5.96408 9.99661 5.59586 10.6662 5.29625L11.475 1.25ZM13.525 3.75L12.8475 7.13125L12.1912 7.3725C11.3214 7.69343 10.5131 8.16103 9.80121 8.755L9.26371 9.20375L5.99496 8.0975L4.51996 10.6525L7.10996 12.9288L6.99121 13.6175C6.83445 14.5325 6.83445 15.4675 6.99121 16.3825L7.10996 17.07L4.51871 19.3475L5.99371 21.9025L9.26371 20.7962L9.80121 21.245C10.5134 21.8384 11.3217 22.3059 12.1912 22.6275L12.8475 22.8688L13.525 26.25H16.475L17.1525 22.8688L17.8087 22.6275C18.6785 22.3065 19.4868 21.8389 20.1987 21.245L20.7362 20.7962L24.0062 21.9025L25.4812 19.3475L22.8912 17.0712L23.0087 16.3825C23.1654 15.4675 23.1654 14.5325 23.0087 13.6175L22.8912 12.93L25.4812 10.6525L24.0062 8.0975L20.7362 9.20375L20.1987 8.755C19.4869 8.16099 18.6785 7.69338 17.8087 7.3725L17.1525 7.13125L16.475 3.75H13.525ZM15 11.25C14.0054 11.25 13.0516 11.6451 12.3483 12.3483C11.645 13.0516 11.25 14.0054 11.25 15C11.25 15.9946 11.645 16.9484 12.3483 17.6517C13.0516 18.3549 14.0054 18.75 15 18.75C15.9945 18.75 16.9483 18.3549 17.6516 17.6517C18.3549 16.9484 18.75 15.9946 18.75 15C18.75 14.0054 18.3549 13.0516 17.6516 12.3483C16.9483 11.6451 15.9945 11.25 15 11.25ZM8.74996 15C8.74996 13.3424 9.40844 11.7527 10.5805 10.5806C11.7526 9.40848 13.3424 8.75 15 8.75C16.6576 8.75 18.2473 9.40848 19.4194 10.5806C20.5915 11.7527 21.25 13.3424 21.25 15C21.25 16.6576 20.5915 18.2473 19.4194 19.4194C18.2473 20.5915 16.6576 21.25 15 21.25C13.3424 21.25 11.7526 20.5915 10.5805 19.4194C9.40844 18.2473 8.74996 16.6576 8.74996 15Z" fill="black"/>
</svg>
