<svg width="28" height="29" viewBox="0 0 28 29" fill="none" xmlns="http://www.w3.org/2000/svg">
<path d="M14 25.3749C15.3788 25.3749 16.7442 25.0936 18.0181 24.5471C19.2921 24.0006 20.4496 23.1995 21.4246 22.1897C22.3996 21.1799 23.173 19.981 23.7007 18.6616C24.2284 17.3422 24.5 15.928 24.5 14.4999C24.5 13.0718 24.2284 11.6577 23.7007 10.3382C23.173 9.01882 22.3996 7.81997 21.4246 6.81013C20.4496 5.8003 19.2921 4.99925 18.0181 4.45273C16.7442 3.90621 15.3788 3.62492 14 3.62492C11.2152 3.62492 8.54447 4.77067 6.57534 6.81013C4.60621 8.84959 3.49996 11.6157 3.49996 14.4999C3.49996 17.3841 4.60621 20.1502 6.57534 22.1897C8.54447 24.2292 11.2152 25.3749 14 25.3749ZM26.8333 14.4999C26.8333 21.8405 21.0875 27.7916 14 27.7916C6.91246 27.7916 1.16663 21.8405 1.16663 14.4999C1.16663 7.15929 6.91246 1.20825 14 1.20825C21.0875 1.20825 26.8333 7.15929 26.8333 14.4999ZM17.5 19.8335L12.8333 15.0002V6.64575H15.1666V13.9997L19.1496 18.1249L17.5 19.8335Z" fill="black"/>
</svg>
