<svg width="31" height="30" viewBox="0 0 31 30" fill="none" xmlns="http://www.w3.org/2000/svg">
<path d="M4.60912 8.21582C4.48978 8.10305 4.3494 8.01489 4.19599 7.95637C4.04258 7.89785 3.87914 7.87012 3.71502 7.87476C3.55089 7.8794 3.38928 7.91633 3.23943 7.98343C3.08957 8.05053 2.9544 8.14648 2.84162 8.26582C2.72885 8.38516 2.64069 8.52554 2.58217 8.67896C2.52365 8.83237 2.49592 8.9958 2.50056 9.15993C2.5052 9.32405 2.54213 9.48566 2.60923 9.63552C2.67633 9.78538 2.77228 9.92055 2.89162 10.0333L14.1416 20.6583C14.3737 20.8777 14.681 21 15.0004 21C15.3198 21 15.627 20.8777 15.8591 20.6583L27.1104 10.0333C27.2323 9.92129 27.3308 9.78615 27.4001 9.63574C27.4694 9.48533 27.5081 9.32266 27.5139 9.15717C27.5198 8.99167 27.4928 8.82666 27.4343 8.67171C27.3759 8.51677 27.2873 8.37498 27.1736 8.25458C27.0599 8.13417 26.9234 8.03756 26.772 7.97036C26.6207 7.90315 26.4575 7.86668 26.292 7.86308C26.1264 7.85947 25.9618 7.8888 25.8076 7.94935C25.6535 8.00991 25.513 8.10048 25.3941 8.21582L15.0004 18.0308L4.60912 8.21582Z" fill="black" fill-opacity="0.7"/>
</svg>
