<svg fill="none" height="29" viewBox="0 0 28 29" width="28" xmlns="http://www.w3.org/2000/svg"><g fill="#000"><path d="m8.16663 20.5574 5.14847-.0182 11.2374-11.52747c.441-.45675.6836-1.06333.6836-1.70858s-.2426-1.25183-.6836-1.70858l-1.8504-1.91642c-.882-.9135-2.4208-.90867-3.2958-.00362l-11.23967 11.52987zm12.88587-15.17067 1.8538 1.9128-1.8632 1.91158-1.8503-1.91521zm-10.5525 10.82547 7.035-7.21738 1.8503 1.91638-7.0338 7.215-1.8515.006z"/><path d="m5.83333 25.375h16.33337c1.2868 0 2.3333-1.0839 2.3333-2.4167v-10.4738l-2.3333 2.4167v8.0571h-12.64903c-.03034 0-.06184.0121-.09217.0121-.0385 0-.077-.0109-.11667-.0121h-3.4755v-16.91663h7.98817l2.3333-2.41667h-10.32147c-1.28683 0-2.33333 1.08387-2.33333 2.41667v16.91663c0 1.3328 1.0465 2.4167 2.33333 2.4167z"/></g></svg>